#!OML:ASF E:\inclinewalkrobotboard\Project 1\Capture day 1\Session 1\subject1.ASF
:FULLY-SPECIFIED
:DEGREES
1420
root 10.8239 16.5662 -8.22248 21.6126 -18.724 -4.54553
lowerback 3.77827 2.81792 -7.03674
upperback 6.80749 3.62975 1.0642
thorax 4.48313 1.4274 5.03586
lowerneck -6.77755 -0.848066 -3.09178
upperneck 37.8911 -2.96779 5.84008
head 14.2274 -1.08086 2.5259
rclavicle 2.88238e-014 -6.75868e-015
rhumerus -40.2331 -10.2066 -70.6783
rradius 49.1208
rwrist -0.554482
rhand -12.2522 -39.6243
rfingers 7.12502
rthumb 13.814 -429.146
lclavicle 2.88238e-014 -6.75868e-015
lhumerus -29.1082 6.01776 71.8289
lradius 21.9165
lwrist -21.6564
lhand -24.0716 343.582
lfingers 7.12502
lthumb 2.40823 13.5477
rfemur -33.1523 7.11186 10.4382
rtibia 70.1669
rfoot -17.1928 -10.8666
rtoes -36.4759
lfemur -25.1785 -6.42689 -12.4239
ltibia 11.2505
lfoot -10.6259 12.9762
ltoes -53.2322
1421
root 10.7772 16.5755 -8.26151 21.369 -17.9804 -4.38806
lowerback 4.23408 2.30617 -6.9858
upperback 6.62371 2.90152 1.42069
thorax 4.11694 1.07914 5.36868
lowerneck -6.24142 -0.383794 -3.23423
upperneck 37.4614 -2.04902 5.25749
head 13.836 -0.785324 2.4169
rclavicle -1.63003e-014 -8.74653e-015
rhumerus -40.3271 -8.89334 -70.9683
rradius 48.7001
rwrist -0.618474
rhand -12.2391 -39.8656
rfingers 7.12502
rthumb 13.8265 -429.386
lclavicle -1.63003e-014 -8.74653e-015
lhumerus -28.866 6.48928 72.6113
lradius 23.1933
lwrist -20.9193
lhand -24.575 343.693
lfingers 7.12502
lthumb 1.92199 13.6639
rfemur -33.5694 8.09224 10.6827
rtibia 62.1309
rfoot -18.6109 -10.4587
rtoes -39.0285
lfemur -25.3933 -6.34622 -12.2655
ltibia 11.4858
lfoot -10.4056 12.4592
ltoes -53.6688
1422
root 10.7253 16.5641 -8.25417 21.115 -17.3594 -4.04716
lowerback 3.94374 2.21961 -6.54628
upperback 6.55685 2.81494 1.36664
thorax 4.2377 1.05549 5.07631
lowerneck -5.89402 -0.459895 -2.78307
upperneck 37.2427 -2.17155 5.05971
head 13.6593 -0.800243 2.23262
rclavicle 1.5704e-014 -2.04748e-014
rhumerus -41.1547 -9.18305 -71.2001
rradius 49.0522
rwrist -0.0567047
rhand -13.351 -38.5797
rfingers 7.12502
rthumb 12.7549 -428.17
lclavicle 1.5704e-014 -2.04748e-014
lhumerus -28.0202 5.27147 73.521
lradius 24.3828
lwrist -20.0373
lhand -24.8584 343.627
lfingers 7.12502
lthumb 1.64829 13.6004
rfemur -33.052 8.86141 10.457
rtibia 53.0893
rfoot -18.622 -8.62884
rtoes -37.0539
lfemur -25.0179 -6.28313 -12.5611
ltibia 11.0793
lfoot -10.0556 11.9432
ltoes -54.3965
1423
root 10.6655 16.5619 -8.27485 20.8796 -16.7241 -3.76814
lowerback 3.95072 2.08566 -6.31418
upperback 6.45821 2.63588 1.44844
thorax 4.1567 0.981308 5.03146
lowerneck -5.95406 -0.511784 -2.45884
upperneck 37.2982 -2.19381 4.72597
head 13.6925 -0.8016 2.03852
rclavicle -3.37934e-015 1.13307e-014
rhumerus -41.5241 -8.88714 -71.4372
rradius 48.9967
rwrist -0.140801
rhand -9.92257 -43.2137
rfingers 7.12502
rthumb 16.0582 -432.568
lclavicle -3.37934e-015 1.13307e-014
lhumerus -27.3656 4.28809 74.4706
lradius 25.677
lwrist -19.0538
lhand -24.9678 343.472
lfingers 7.12502
lthumb 1.54269 13.4457
rfemur -32.4725 9.55066 10.3628
rtibia 44.5369
rfoot -18.9132 -6.91758
rtoes -38.4996
lfemur -25.0057 -6.1769 -12.5749
ltibia 11.0471
lfoot -9.83624 11.4465
ltoes -54.7699
1424
root 10.598 16.5605 -8.29914 20.5489 -15.8539 -3.32559
lowerback 4.08353 1.80779 -6.31407
upperback 6.32307 2.25301 1.60275
thorax 3.98493 0.797795 5.19193
lowerneck -6.01 -0.510289 -2.41135
upperneck 37.3942 -2.12123 4.48961
head 13.742 -0.789263 1.94656
rclavicle 2.36554e-014 -1.19271e-015
rhumerus -41.6957 -8.07744 -71.7001
rradius 48.8684
rwrist -0.468489
rhand -10.9828 -41.0065
rfingers 7.12502
rthumb 15.0371 -430.44
lclavicle 2.36554e-014 -1.19271e-015
lhumerus -26.8669 3.39318 75.4407
lradius 26.8513
lwrist -18.2961
lhand -25.1144 343.472
lfingers 7.12502
lthumb 1.40106 13.4468
rfemur -31.5471 9.82333 10.2538
rtibia 36.3189
rfoot -19.0207 -5.33074
rtoes -40.932
lfemur -25.0835 -6.26005 -12.7308
ltibia 11.205
lfoot -9.75854 10.8048
ltoes -54.7354
